<?xml version="1.0" encoding="UTF-8" standalone="no"?>
<!DOCTYPE svg PUBLIC "-//W3C//DTD SVG 1.1//EN"
 "http://www.w3.org/Graphics/SVG/1.1/DTD/svg11.dtd">
<!-- Generated by graphviz version 2.26.3 (20100126.1600)
 -->
<!-- Title: rule_of_choose_program Pages: 1 -->
<svg width="273pt" height="432pt"
 viewBox="0.00 0.00 272.95 432.00" xmlns="http://www.w3.org/2000/svg" xmlns:xlink="http://www.w3.org/1999/xlink">
<g id="graph1" class="graph" transform="scale(0.654545 0.654545) rotate(0) translate(4 656)">
<title>rule_of_choose_program</title>
<polygon fill="white" stroke="white" points="-4,5 -4,-656 414,-656 414,5 -4,5"/>
<!-- begin -->
<g id="node1" class="node"><title>begin</title>
<ellipse fill="none" stroke="black" cx="177" cy="-630" rx="31.8198" ry="19.0919"/>
<text text-anchor="middle" x="177" y="-626.9" font-family="Times Roman,serif" font-size="14.00">开始</text>
</g>
<!-- is_opensource -->
<g id="node3" class="node"><title>is_opensource</title>
<polygon fill="none" stroke="black" points="177,-570 103,-543 177,-516 251,-543 177,-570"/>
<text text-anchor="middle" x="177" y="-539.9" font-family="Times Roman,serif" font-size="14.00">是否开源</text>
</g>
<!-- begin&#45;&gt;is_opensource -->
<g id="edge2" class="edge"><title>begin&#45;&gt;is_opensource</title>
<path fill="none" stroke="black" d="M177,-610.692C177,-601.756 177,-590.823 177,-580.372"/>
<polygon fill="black" stroke="black" points="180.5,-580.173 177,-570.173 173.5,-580.173 180.5,-580.173"/>
</g>
<!-- is_ubuntu -->
<g id="node5" class="node"><title>is_ubuntu</title>
<polygon fill="none" stroke="black" points="150,-460 26,-433 150,-406 274,-433 150,-460"/>
<text text-anchor="middle" x="150" y="-429.9" font-family="Times Roman,serif" font-size="14.00">是否支持ubuntu</text>
</g>
<!-- is_opensource&#45;&gt;is_ubuntu -->
<g id="edge4" class="edge"><title>is_opensource:w&#45;&gt;is_ubuntu</title>
<path fill="none" stroke="black" stroke-width="2" d="M102,-543C67.2328,-543 98.1799,-496.268 123.947,-463.723"/>
<polygon fill="black" stroke="black" points="126.79,-465.773 130.343,-455.792 121.341,-461.379 126.79,-465.773"/>
<text text-anchor="middle" x="120.5" y="-484.9" font-family="Times Roman,serif" font-size="14.00">是</text>
</g>
<!-- is_opensource&#45;&gt;is_ubuntu -->
<g id="edge6" class="edge"><title>is_opensource:e&#45;&gt;is_ubuntu</title>
<path fill="none" stroke="black" stroke-dasharray="1,5" d="M252,-543C297.358,-543 233.793,-492.089 188.515,-459.538"/>
<polygon fill="black" stroke="black" points="190.479,-456.64 180.304,-453.69 186.419,-462.342 190.479,-456.64"/>
<text text-anchor="middle" x="244.5" y="-484.9" font-family="Times Roman,serif" font-size="14.00">否</text>
</g>
<!-- is_source -->
<g id="node8" class="node"><title>is_source</title>
<polygon fill="none" stroke="black" points="176,-350 45,-323 176,-296 307,-323 176,-350"/>
<text text-anchor="middle" x="176" y="-319.9" font-family="Times Roman,serif" font-size="14.00">是否可获得源代码</text>
</g>
<!-- is_ubuntu&#45;&gt;is_source -->
<g id="edge8" class="edge"><title>is_ubuntu:w&#45;&gt;is_source</title>
<path fill="none" stroke="black" stroke-width="2" d="M25,-433C-33.1171,-433 64.1037,-379.108 127.678,-346.767"/>
<polygon fill="black" stroke="black" points="129.445,-349.795 136.791,-342.161 126.288,-343.548 129.445,-349.795"/>
<text text-anchor="middle" x="95.5" y="-374.9" font-family="Times Roman,serif" font-size="14.00">是</text>
</g>
<!-- is_ubuntu&#45;&gt;is_source -->
<g id="edge10" class="edge"><title>is_ubuntu:e&#45;&gt;is_source</title>
<path fill="none" stroke="black" stroke-dasharray="1,5" d="M275,-433C319.533,-433 258.379,-382.574 214.237,-350.005"/>
<polygon fill="black" stroke="black" points="216.087,-347.022 205.947,-343.949 211.957,-352.674 216.087,-347.022"/>
<text text-anchor="middle" x="268.5" y="-374.9" font-family="Times Roman,serif" font-size="14.00">否</text>
</g>
<!-- is_cross_platform -->
<g id="node11" class="node"><title>is_cross_platform</title>
<polygon fill="none" stroke="black" points="148,-240 60,-213 148,-186 236,-213 148,-240"/>
<text text-anchor="middle" x="148" y="-209.9" font-family="Times Roman,serif" font-size="14.00">是否跨平台</text>
</g>
<!-- is_source&#45;&gt;is_cross_platform -->
<g id="edge12" class="edge"><title>is_source:w&#45;&gt;is_cross_platform</title>
<path fill="none" stroke="black" stroke-width="2" d="M44,-323C-2.76122,-323 65.7156,-269.864 111.833,-237.453"/>
<polygon fill="black" stroke="black" points="113.945,-240.247 120.151,-231.66 109.945,-234.503 113.945,-240.247"/>
<text text-anchor="middle" x="91.5" y="-264.9" font-family="Times Roman,serif" font-size="14.00">是</text>
</g>
<!-- is_source&#45;&gt;is_cross_platform -->
<g id="edge14" class="edge"><title>is_source:e&#45;&gt;is_cross_platform</title>
<path fill="none" stroke="black" stroke-dasharray="1,5" d="M308,-323C370.458,-323 258.691,-265.377 192.178,-233.543"/>
<polygon fill="black" stroke="black" points="193.65,-230.367 183.116,-229.231 190.642,-236.688 193.65,-230.367"/>
<text text-anchor="middle" x="285.5" y="-264.9" font-family="Times Roman,serif" font-size="14.00">否</text>
</g>
<!-- is_free -->
<g id="node14" class="node"><title>is_free</title>
<polygon fill="none" stroke="black" points="131,-130 2.84217e-14,-103 131,-76 262,-103 131,-130"/>
<text text-anchor="middle" x="131" y="-99.9" font-family="Times Roman,serif" font-size="14.00">是否可以免费使用</text>
</g>
<!-- is_cross_platform&#45;&gt;is_free -->
<g id="edge16" class="edge"><title>is_cross_platform:w&#45;&gt;is_free</title>
<path fill="none" stroke="black" stroke-width="2" d="M59,-213C20.2743,-213 64.5073,-164.682 98.7452,-132.092"/>
<polygon fill="black" stroke="black" points="101.408,-134.393 106.302,-124.996 96.6163,-129.29 101.408,-134.393"/>
<text text-anchor="middle" x="90.5" y="-154.9" font-family="Times Roman,serif" font-size="14.00">是</text>
</g>
<!-- is_cross_platform&#45;&gt;is_free -->
<g id="edge18" class="edge"><title>is_cross_platform:e&#45;&gt;is_free</title>
<path fill="none" stroke="black" stroke-dasharray="1,5" d="M237,-213C283.189,-213 217.473,-162.089 170.735,-129.538"/>
<polygon fill="black" stroke="black" points="172.478,-126.489 162.26,-123.69 168.503,-132.25 172.478,-126.489"/>
<text text-anchor="middle" x="228.5" y="-154.9" font-family="Times Roman,serif" font-size="14.00">否</text>
</g>
<!-- end -->
<g id="node17" class="node"><title>end</title>
<ellipse fill="none" stroke="black" cx="131" cy="-19" rx="31.8198" ry="19.0919"/>
<text text-anchor="middle" x="131" y="-15.9" font-family="Times Roman,serif" font-size="14.00">结束</text>
</g>
<!-- is_free&#45;&gt;end -->
<g id="edge20" class="edge"><title>is_free&#45;&gt;end</title>
<path fill="none" stroke="black" d="M131,-75.9595C131,-67.0658 131,-57.1426 131,-48.1024"/>
<polygon fill="black" stroke="black" points="134.5,-48.01 131,-38.0101 127.5,-48.0101 134.5,-48.01"/>
</g>
<!-- Author -->
<g id="node18" class="node"><title>Author</title>
<text text-anchor="middle" x="318" y="-635.4" font-family="Times Roman,serif" font-size="14.00">Author: jks Liu</text>
<text text-anchor="middle" x="318" y="-617.4" font-family="Times Roman,serif" font-size="14.00">Date: Sun 26&#45;Aug&#45;2012</text>
</g>
</g>
</svg>
